<?xml version="1.0" encoding="UTF-8" standalone="no"?>
<!-- Created with Inkscape (http://www.inkscape.org/) -->

<svg
   xmlns:dc="http://purl.org/dc/elements/1.1/"
   xmlns:cc="http://creativecommons.org/ns#"
   xmlns:rdf="http://www.w3.org/1999/02/22-rdf-syntax-ns#"
   xmlns:svg="http://www.w3.org/2000/svg"
   xmlns="http://www.w3.org/2000/svg"
   xmlns:sodipodi="http://sodipodi.sourceforge.net/DTD/sodipodi-0.dtd"
   xmlns:inkscape="http://www.inkscape.org/namespaces/inkscape"
   id="svg3769"
   height="76.452507"
   width="255.27744"
   version="1.1"
   sodipodi:docname="Internet Explorer 11.svg"
   inkscape:version="0.92.1 r15371">
  <defs
     id="defs8" />
  <sodipodi:namedview
     pagecolor="#ffffff"
     bordercolor="#666666"
     borderopacity="1"
     objecttolerance="10"
     gridtolerance="10"
     guidetolerance="10"
     inkscape:pageopacity="0"
     inkscape:pageshadow="2"
     inkscape:window-width="1600"
     inkscape:window-height="837"
     id="namedview6"
     showgrid="false"
     showguides="true"
     inkscape:guide-bbox="true"
     fit-margin-top="0"
     fit-margin-left="0"
     fit-margin-right="0"
     fit-margin-bottom="0"
     inkscape:zoom="0.70710678"
     inkscape:cx="7.2564827"
     inkscape:cy="3.6358351"
     inkscape:window-x="-8"
     inkscape:window-y="-8"
     inkscape:window-maximized="1"
     inkscape:current-layer="svg3769" />
  <metadata
     id="metadata3774">
    <rdf:RDF>
      <cc:Work
         rdf:about="">
        <dc:format>image/svg+xml</dc:format>
        <dc:type
           rdf:resource="http://purl.org/dc/dcmitype/StillImage" />
        <dc:title></dc:title>
      </cc:Work>
    </rdf:RDF>
  </metadata>
  <g
     id="layer1"
     transform="matrix(0.31222714,0,0,0.31222714,-99.410222,-86.923457)"
     style="fill:#1ebbee;fill-opacity:1">
    <path
       id="svg"
       d="m 533.03,388.73 c 0,-16.968 -4.387,-32.909 -12.08,-46.761 32.791,-74.213 -35.136,-63.343 -38.918,-62.603 -14.391,2.816 -27.705,7.337 -39.986,13.068 -1.811,-0.102 -3.633,-0.158 -5.469,-0.158 -45.833,0 -84.198,31.968 -94.017,74.823 24.157,-27.101 41.063,-38.036 51.187,-42.412 -1.616,1.444 -3.198,2.904 -4.754,4.375 -0.518,0.489 -1.017,0.985 -1.528,1.477 -1.026,0.987 -2.05,1.975 -3.05,2.972 -0.595,0.593 -1.174,1.191 -1.76,1.788 -0.887,0.903 -1.772,1.805 -2.638,2.713 -0.615,0.645 -1.215,1.292 -1.819,1.938 -0.809,0.866 -1.613,1.733 -2.402,2.603 -0.613,0.676 -1.216,1.352 -1.818,2.03 -0.748,0.842 -1.489,1.684 -2.22,2.528 -0.606,0.7 -1.207,1.4 -1.801,2.101 -0.693,0.818 -1.377,1.636 -2.054,2.454 -0.599,0.724 -1.196,1.447 -1.782,2.17 -0.634,0.782 -1.254,1.563 -1.873,2.343 -0.6,0.756 -1.2,1.511 -1.786,2.266 -0.558,0.719 -1.1,1.435 -1.646,2.152 -0.616,0.81 -1.237,1.62 -1.837,2.426 -0.429,0.577 -0.841,1.148 -1.262,1.723 -3.811,5.2 -7.293,10.3 -10.438,15.199 -0.008,0.012 -0.016,0.024 -0.023,0.036 -0.828,1.29 -1.627,2.561 -2.41,3.821 -0.042,0.068 -0.086,0.137 -0.128,0.206 -0.784,1.265 -1.541,2.508 -2.279,3.738 -0.026,0.043 -0.053,0.087 -0.079,0.13 -1.984,3.311 -3.824,6.503 -5.481,9.506 -8.687,15.743 -12.916,26.742 -13.099,27.395 -27.432,98.072 58.184,56.657 70.131,50.475 12.864,6.355 27.346,9.932 42.666,9.932 41.94,0 77.623,-26.771 90.905,-64.156 h -50.68 c -7.499,12.669 -21.936,21.25 -38.522,21.25 -24.301,0 -44,-18.412 -44,-41.125 h 137.96 c 0.523,-4.068 0.794,-8.214 0.794,-12.423 z m -18.018,-94.916 c 8.306,5.606 14.968,14.41 3.527,44.059 -10.973,-17.647 -27.482,-31.49 -47.104,-39.099 8.926,-4.311 31.031,-13.429 43.577,-4.96 z m -176.52,181.24 c -6.765,-6.938 -7.961,-23.836 6.967,-54.628 7.534,21.661 22.568,39.811 42,51.33 -9.664,5.319 -35.32,17.295 -48.967,3.298 z m 55.571,-100.28 c 0.771,-22.075 19.983,-39.75 43.588,-39.75 23.604,0 42.817,17.675 43.588,39.75 z"
       inkscape:connector-curvature="0"
       style="fill:#1ebbee;fill-opacity:1" />
  </g>
  <g
     id="text26-5-5"
     style="font-style:normal;font-weight:normal;font-size:49.2898674px;line-height:1.25;font-family:sans-serif;letter-spacing:0px;word-spacing:0px;fill:#1ebbee;fill-opacity:1;stroke:none;stroke-width:1.23224676"
     transform="matrix(0.79942463,0,0,0.81029208,194.57351,565.51085)"
     aria-label="®">
    <path
       inkscape:connector-curvature="0"
       id="path910-0"
       style="font-style:normal;font-variant:normal;font-weight:normal;font-stretch:normal;font-size:10.66666794px;font-family:'Franklin Gothic Medium';-inkscape-font-specification:'Franklin Gothic Medium, ';letter-spacing:0.67199999px;fill:#1ebbee;fill-opacity:1;stroke-width:1.23224676"
       d="m -161.28964,-622.14046 q 0,1.52083 -1.08333,2.61458 -1.08333,1.08854 -2.59896,1.08854 -1.52604,0 -2.61458,-1.08854 -1.08854,-1.09375 -1.08854,-2.61979 0,-1.52604 1.08333,-2.61458 1.08854,-1.08855 2.63021,-1.08855 1.51562,0 2.59375,1.08855 1.07812,1.08854 1.07812,2.61979 z m -0.66145,-0.005 q 0,-1.27604 -0.89063,-2.19271 -0.88542,-0.91667 -2.125,-0.91667 -1.26563,0 -2.15625,0.91667 -0.89063,0.91146 -0.89063,2.19271 0,1.29167 0.89063,2.20312 0.89583,0.91146 2.14583,0.91146 1.23959,0 2.13021,-0.91146 0.89584,-0.91145 0.89584,-2.20312 z m -1.17188,2.13542 h -0.95833 l -0.69271,-1.72396 h -1.02084 v 1.72396 h -0.91145 v -4.26563 h 1.97916 q 0.8125,0 1.20834,0.35417 0.40104,0.35416 0.40104,0.91146 0,0.79687 -0.79167,1.125 z m -2.67188,-2.40105 h 0.9375 q 0.79688,0 0.79688,-0.60937 0,-0.58333 -0.72917,-0.58333 h -1.00521 z" />
  </g>
  <g
     id="text26-5-5-4"
     style="font-style:normal;font-weight:normal;font-size:49.2898674px;line-height:1.25;font-family:sans-serif;letter-spacing:0px;word-spacing:0px;fill:#1ebbee;fill-opacity:1;stroke:none;stroke-width:1.23224676"
     transform="matrix(0.70368089,0,0,0.71324679,341.76848,492.17825)"
     aria-label="®">
    <path
       inkscape:connector-curvature="0"
       id="path910-0-1"
       style="font-style:normal;font-variant:normal;font-weight:normal;font-stretch:normal;font-size:10.66666794px;font-family:'Franklin Gothic Medium';-inkscape-font-specification:'Franklin Gothic Medium, ';letter-spacing:0.67199999px;fill:#1ebbee;fill-opacity:1;stroke-width:1.23224676"
       d="m -161.28964,-622.14046 q 0,1.52083 -1.08333,2.61458 -1.08333,1.08854 -2.59896,1.08854 -1.52604,0 -2.61458,-1.08854 -1.08854,-1.09375 -1.08854,-2.61979 0,-1.52604 1.08333,-2.61458 1.08854,-1.08855 2.63021,-1.08855 1.51562,0 2.59375,1.08855 1.07812,1.08854 1.07812,2.61979 z m -0.66145,-0.005 q 0,-1.27604 -0.89063,-2.19271 -0.88542,-0.91667 -2.125,-0.91667 -1.26563,0 -2.15625,0.91667 -0.89063,0.91146 -0.89063,2.19271 0,1.29167 0.89063,2.20312 0.89583,0.91146 2.14583,0.91146 1.23959,0 2.13021,-0.91146 0.89584,-0.91145 0.89584,-2.20312 z m -1.17188,2.13542 h -0.95833 l -0.69271,-1.72396 h -1.02084 v 1.72396 h -0.91145 v -4.26563 h 1.97916 q 0.8125,0 1.20834,0.35417 0.40104,0.35416 0.40104,0.91146 0,0.79687 -0.79167,1.125 z m -2.67188,-2.40105 h 0.9375 q 0.79688,0 0.79688,-0.60937 0,-0.58333 -0.72917,-0.58333 h -1.00521 z" />
  </g>
  <path
     sodipodi:nodetypes="cccccccc"
     inkscape:connector-curvature="0"
     id="path131"
     style="font-style:normal;font-variant:normal;font-weight:normal;font-stretch:normal;font-size:medium;line-height:1.25;font-family:'Franklin Gothic Book';-inkscape-font-specification:'Franklin Gothic Book, ';letter-spacing:-4.89000273px;word-spacing:0px;fill:#1ebbee;fill-opacity:1;stroke:#1ebbee;stroke-width:0.5;stroke-miterlimit:4;stroke-dasharray:none;stroke-opacity:1"
     d="M 235.94845,66.484533 V 41.902347 c -2.5445,2.003936 -4.64682,2.106174 -7.10246,3.577081 v -3.580132 c 3.38752,-1.956584 5.48283,-2.159574 7.87693,-4.40967 h 2.30452 v 28.994907 z" />
  <g
     transform="matrix(1.4089292,0,0,1.4089292,-501.88358,-949.3218)"
     id="layer1-7-1"
     style="fill:#1ebbee;fill-opacity:1">
    <path
       inkscape:connector-curvature="0"
       d="m 419.96353,694.2539 h -2.38125 v -20.33125 h 2.38125 z"
       id="path130-1"
       style="fill:#1ebbee;fill-opacity:1;fill-rule:nonzero;stroke:none" />
    <path
       inkscape:connector-curvature="0"
       d="m 436.17678,694.25415 h -2.325 v -8.28 c 0,-3.0725 -1.125,-4.60875 -3.375,-4.60875 -1.1625,0 -2.12375,0.435 -2.885,1.305 -0.76125,0.87 -1.14125,1.97125 -1.14125,3.30375 v 8.28 h -2.325 V 679.7354 h 2.325 v 2.41 h 0.0562 c 1.0875,-1.8425 2.67625,-2.765 4.76375,-2.765 1.5975,0 2.815,0.52 3.65125,1.56 0.83625,1.04 1.255,2.515 1.255,4.42375 v 8.89 z"
       id="path134-5"
       style="fill:#1ebbee;fill-opacity:1;fill-rule:nonzero;stroke:none" />
    <path
       inkscape:connector-curvature="0"
       d="m 446.42166,694.11215 c -0.5475,0.3125 -1.27625,0.4675 -2.18375,0.4675 -2.5325,0 -3.8,-1.4275 -3.8,-4.28125 v -8.5925 h -2.495 v -1.97 h 2.495 v -3.545 c 0.7375,-0.23625 1.5125,-0.4875 2.32625,-0.75125 v 4.29625 h 3.6575 v 1.97 h -3.6575 v 8.195 c 0,0.97375 0.165,1.66625 0.49625,2.0775 0.33,0.41125 0.88375,0.61625 1.65875,0.61625 0.57625,0 1.0775,-0.155 1.5025,-0.4675 z"
       id="path138-8"
       style="fill:#1ebbee;fill-opacity:1;fill-rule:nonzero;stroke:none" />
    <path
       inkscape:connector-curvature="0"
       d="m 457.82878,685.60515 c -0.0188,-1.32375 -0.33125,-2.35375 -0.93625,-3.09125 -0.6325,-0.765 -1.53125,-1.1475 -2.69375,-1.1475 -1.09625,0 -2.0275,0.39 -2.7925,1.16875 -0.76625,0.78 -1.23875,1.80375 -1.4175,3.07 h 7.83999 z m 2.38125,1.97125 h -10.25 c 0.0375,1.625 0.4725,2.8725 1.30375,3.7425 0.8325,0.87 1.97625,1.305 3.43125,1.305 1.635,0 3.13375,-0.53 4.495,-1.58875 v 2.17 c -1.26625,0.935 -2.94875,1.40375 -5.0475,1.40375 -1.985,0 -3.55875,-0.62375 -4.72125,-1.8725 -1.2475,-1.3225 -1.87125,-3.2175 -1.87125,-5.685 0,-2.335 0.675,-4.22 2.0275,-5.6575 1.26625,-1.34125 2.81625,-2.0125 4.65,-2.0125 1.96625,0 3.46875,0.65625 4.50875,1.97 0.98375,1.22875 1.47375,2.8975 1.47375,5.005 z"
       id="path142-3"
       style="fill:#1ebbee;fill-opacity:1;fill-rule:nonzero;stroke:none" />
    <path
       inkscape:connector-curvature="0"
       d="m 470.31366,682.08903 c -0.40625,-0.3125 -0.9975,-0.4675 -1.7725,-0.4675 -0.945,0 -1.73875,0.425 -2.38125,1.27625 -0.7275,0.95375 -1.0925,2.2725 -1.0925,3.955 v 7.40125 h -2.325 v -14.51875 h 2.325 v 2.99125 h 0.0575 c 0.34,-1.0575 0.865,-1.87625 1.57375,-2.4525 0.66125,-0.52875 1.40375,-0.79375 2.22625,-0.79375 0.61375,0 1.0775,0.0662 1.38875,0.19875 z"
       id="path146-0"
       style="fill:#1ebbee;fill-opacity:1;fill-rule:nonzero;stroke:none" />
    <path
       inkscape:connector-curvature="0"
       d="m 484.03203,694.25415 h -2.325 v -8.28 c 0,-3.0725 -1.125,-4.60875 -3.37375,-4.60875 -1.16375,0 -2.125,0.435 -2.88625,1.305 -0.76,0.87 -1.14125,1.97125 -1.14125,3.30375 v 8.28 h -2.325 V 679.7354 h 2.325 v 2.41 h 0.0575 c 1.08625,-1.8425 2.675,-2.765 4.7625,-2.765 1.5975,0 2.815,0.52 3.65125,1.56 0.83625,1.04 1.255,2.515 1.255,4.42375 z"
       id="path150-2"
       style="fill:#1ebbee;fill-opacity:1;fill-rule:nonzero;stroke:none" />
    <path
       inkscape:connector-curvature="0"
       d="m 496.71566,685.60515 c -0.0188,-1.32375 -0.33125,-2.35375 -0.93625,-3.09125 -0.6325,-0.765 -1.53125,-1.1475 -2.69375,-1.1475 -1.09625,0 -2.0275,0.39 -2.7925,1.16875 -0.76625,0.78 -1.23875,1.80375 -1.41875,3.07 z m 2.38125,1.97125 h -10.25 c 0.0375,1.625 0.4725,2.8725 1.30375,3.7425 0.8325,0.87 1.97625,1.305 3.43125,1.305 1.635,0 3.13375,-0.53 4.495,-1.58875 v 2.17 c -1.26625,0.935 -2.95,1.40375 -5.0475,1.40375 -1.985,0 -3.55875,-0.62375 -4.72125,-1.8725 -1.24875,-1.3225 -1.8725,-3.2175 -1.8725,-5.685 0,-2.335 0.67625,-4.22 2.02875,-5.6575 1.26625,-1.34125 2.81625,-2.0125 4.65,-2.0125 1.96625,0 3.46875,0.65625 4.50875,1.97 0.9825,1.22875 1.47375,2.8975 1.47375,5.005 z"
       id="path154-2"
       style="fill:#1ebbee;fill-opacity:1;fill-rule:nonzero;stroke:none" />
    <path
       inkscape:connector-curvature="0"
       d="m 508.36353,694.11215 c -0.5475,0.3125 -1.27625,0.4675 -2.18375,0.4675 -2.5325,0 -3.8,-1.4275 -3.8,-4.28125 v -8.5925 h -2.495 v -1.97 h 2.495 v -3.545 c 0.7375,-0.23625 1.5125,-0.4875 2.32625,-0.75125 v 4.29625 h 3.6575 v 1.97 h -3.6575 v 8.195 c 0,0.97375 0.165,1.66625 0.49625,2.0775 0.33,0.41125 0.88375,0.61625 1.65875,0.61625 0.57625,0 1.0775,-0.155 1.5025,-0.4675 z"
       id="path158-1"
       style="fill:#1ebbee;fill-opacity:1;fill-rule:nonzero;stroke:none" />
  </g>
  <g
     transform="matrix(1.4241703,0,0,1.4185891,-649.12958,-917.8821)"
     id="layer1-7-1-6"
     style="fill:#1ebbee;fill-opacity:1">
    <path
       inkscape:connector-curvature="0"
       d="m 527.02603,694.25415 h -10.775 V 673.9229 h 10.3075 v 2.155 h -7.92625 v 6.7625 h 7.34375 v 2.155 h -7.34375 v 7.10375 h 8.39375 z"
       id="path162-9-8"
       style="fill:#1ebbee;fill-opacity:1;fill-rule:nonzero;stroke:none" />
    <path
       inkscape:connector-curvature="0"
       d="m 540.34714,679.7354 -4.87748,7.345 4.7925,7.17375 h -2.69376 l -2.84999,-4.7075 c -0.15126,-0.24625 -0.36375,-0.615 -0.6375,-1.105 h -0.0575 c -0.0375,0.085 -0.26,0.4525 -0.66625,1.105 l -2.90625,4.7075 h -2.665 l 4.93376,-7.1175 -4.73626,-7.40125 h 2.69501 l 2.82125,4.9625 c 0.16999,0.2925 0.3725,0.67125 0.60874,1.13375 h 0.0575 c 0.0275,-0.0462 0.25,-0.425 0.66625,-1.13375 l 2.96249,-4.9625 h 2.5525 z"
       id="path166-2-7"
       style="fill:#1ebbee;fill-opacity:1;fill-rule:nonzero;stroke:none" />
    <path
       inkscape:connector-curvature="0"
       d="m 553.1864,686.52703 c 0,-1.6075 -0.37375,-2.86875 -1.12,-3.78625 -0.74624,-0.91625 -1.75875,-1.375 -3.03374,-1.375 -1.40001,0 -2.52001,0.50125 -3.36126,1.5025 -0.75625,0.9275 -1.13374,2.07 -1.13374,3.43125 v 2.0275 c 0,1.1725 0.37374,2.17 1.12,2.9925 0.79374,0.86875 1.80624,1.30375 3.03375,1.30375 1.37999,0 2.4675,-0.52 3.26124,-1.55875 0.8225,-1.0775 1.23375,-2.59 1.23375,-4.5375 m 2.38251,0.0288 c 0,2.3725 -0.5625,4.28625 -1.6875,5.74125 -1.19125,1.54125 -2.83626,2.31125 -4.935,2.31125 -1.90875,0 -3.36,-0.8125 -4.35251,-2.43875 h -0.0562 v 8.7625 h -2.32501 v -21.19625 h 2.32501 v 2.55125 h 0.0562 c 1.14376,-1.9375 2.8175,-2.90625 5.02,-2.90625 1.9275,0 3.42126,0.7 4.48,2.09875 0.98375,1.285 1.47501,2.9775 1.47501,5.07625"
       id="path170-8-6"
       style="fill:#1ebbee;fill-opacity:1;fill-rule:nonzero;stroke:none" />
    <path
       inkscape:connector-curvature="0"
       d="m 560.62352,694.2539 h -2.325 v -21.495 h 2.325 z"
       id="path172-2-3"
       style="fill:#1ebbee;fill-opacity:1;fill-rule:nonzero;stroke:none" />
    <path
       inkscape:connector-curvature="0"
       d="m 575.26365,687.02315 c 0,-1.8625 -0.42124,-3.28 -1.26251,-4.25375 -0.8125,-0.935 -1.95124,-1.40375 -3.41625,-1.40375 -1.44624,0 -2.60375,0.4725 -3.47374,1.41875 -0.91625,1.01125 -1.375,2.4425 -1.375,4.295 0,1.74 0.43875,3.09875 1.31874,4.07625 0.87876,0.97875 2.05501,1.4675 3.53,1.4675 1.53125,0 2.69875,-0.49625 3.50251,-1.48875 0.78376,-0.96375 1.17625,-2.33375 1.17625,-4.11125 m 2.38125,-0.085 c 0,2.315 -0.65125,4.17375 -1.95625,5.5725 -1.30375,1.39875 -3.0625,2.0975 -5.27375,2.0975 -2.18375,0 -3.91375,-0.69875 -5.18875,-2.0975 -1.24875,-1.3525 -1.8725,-3.13375 -1.8725,-5.345 0,-2.525 0.70875,-4.47625 2.12625,-5.85625 1.31501,-1.285 3.07251,-1.92875 5.27501,-1.92875 2.165,0 3.85375,0.67125 5.06875,2.01375 1.21499,1.3425 1.82125,3.19 1.82125,5.54375"
       id="path176-8-0"
       style="fill:#1ebbee;fill-opacity:1;fill-rule:nonzero;stroke:none" />
    <path
       inkscape:connector-curvature="0"
       d="m 587.94715,682.08903 c -0.40625,-0.3125 -0.9975,-0.4675 -1.7725,-0.4675 -0.94499,0 -1.73875,0.425 -2.38126,1.27625 -0.7275,0.95375 -1.0925,2.2725 -1.0925,3.955 v 7.40125 h -2.325 v -14.51875 h 2.325 v 2.99125 h 0.0575 c 0.33999,-1.0575 0.865,-1.87625 1.57375,-2.4525 0.66124,-0.52875 1.40375,-0.79375 2.22625,-0.79375 0.61375,0 1.07751,0.0662 1.38875,0.19875 v 2.41 z"
       id="path180-4-8"
       style="fill:#1ebbee;fill-opacity:1;fill-rule:nonzero;stroke:none" />
    <path
       inkscape:connector-curvature="0"
       d="m 598.78728,685.60515 c -0.0187,-1.32375 -0.33125,-2.35375 -0.93625,-3.09125 -0.63251,-0.765 -1.53125,-1.1475 -2.69375,-1.1475 -1.09626,0 -2.0275,0.39 -2.79251,1.16875 -0.76624,0.78 -1.23874,1.80375 -1.4175,3.07 z m 2.3825,1.97125 h -10.25125 c 0.0375,1.625 0.4725,2.8725 1.30375,3.7425 0.8325,0.87 1.97625,1.305 3.43125,1.305 1.635,0 3.13375,-0.53 4.495,-1.58875 v 2.17 c -1.26625,0.935 -2.94875,1.40375 -5.0475,1.40375 -1.985,0 -3.55875,-0.62375 -4.72125,-1.8725 -1.2475,-1.3225 -1.87126,-3.2175 -1.87126,-5.685 0,-2.335 0.675,-4.22 2.02751,-5.6575 1.26624,-1.34125 2.81624,-2.0125 4.64999,-2.0125 1.96625,0 3.46875,0.65625 4.50875,1.97 0.9825,1.22875 1.47501,2.8975 1.47501,5.005 z"
       id="path184-9-8"
       style="fill:#1ebbee;fill-opacity:1;fill-rule:nonzero;stroke:none" />
    <path
       inkscape:connector-curvature="0"
       d="m 611.27202,682.08903 c -0.40625,-0.3125 -0.99749,-0.4675 -1.7725,-0.4675 -0.945,0 -1.73875,0.425 -2.38124,1.27625 -0.72875,0.95375 -1.0925,2.2725 -1.0925,3.955 v 7.40125 h -2.325 v -14.51875 h 2.325 v 2.99125 h 0.0575 c 0.34001,-1.0575 0.865,-1.87625 1.57375,-2.4525 0.66126,-0.52875 1.40375,-0.79375 2.22501,-0.79375 0.615,0 1.07874,0.0662 1.38999,0.19875 v 2.41 z"
       id="path188-8-8"
       style="fill:#1ebbee;fill-opacity:1;fill-rule:nonzero;stroke:none" />
  </g>
  <path
     sodipodi:nodetypes="cccccccc"
     inkscape:connector-curvature="0"
     id="path131-4"
     style="font-style:normal;font-variant:normal;font-weight:normal;font-stretch:normal;font-size:medium;line-height:1.25;font-family:'Franklin Gothic Book';-inkscape-font-specification:'Franklin Gothic Book, ';letter-spacing:-4.89000273px;word-spacing:0px;fill:#1ebbee;fill-opacity:1;stroke:#1ebbee;stroke-width:0.5;stroke-miterlimit:4;stroke-dasharray:none;stroke-opacity:1"
     d="M 251.94845,66.484533 V 41.902347 c -2.5445,2.003936 -4.64682,2.106174 -7.10246,3.577081 v -3.580132 c 3.38752,-1.956584 5.48283,-2.159574 7.87693,-4.40967 h 2.30452 v 28.994907 z" />
</svg>
